# xmcd
#
# Track frame offsets:
#	150
#	19133
#	37640
#	57481
#	77722
#	99450
#	120367
#	136874
#	156794
#	177681
#	196198
#	210095
#	216984
#	234498
#
# Disc length: 3572 seconds
#
# Revision: 1
# Processed by: cddbd v1.4PL0 Copyright (c) Steve Scherf et al.
# Submitted via: audiograbber 1.81.02
#
DISCID=b10df20e
DTITLE=Shania Twain - The Woman In Me
DYEAR=1900
DGENRE=
TTITLE0=Home Aint Where His Heart Is (Anymore)
TTITLE1=Any Man Of Mine
TTITLE2=Whose Bed Have Your Boots Been Under?
TTITLE3=(If Your Not In It For Love) I'm Outta Here!
TTITLE4=The Woman In Me (Needs The Man In You)
TTITLE5=Is There Life after Love?
TTITLE6=If It Dont Take Two
TTITLE7=You Win My Love
TTITLE8=Raining On Our Love
TTITLE9=Leaving Is The Only Way Out
TTITLE10=No One Needs Two Know
TTITLE11=God Bless The Child
TTITLE12=You Win My Love (Remix Edit)
TTITLE13=Medley
EXTD=
EXTT0=
EXTT1=
EXTT2=
EXTT3=
EXTT4=
EXTT5=
EXTT6=
EXTT7=
EXTT8=
EXTT9=
EXTT10=
EXTT11=
EXTT12=
EXTT13=
PLAYORDER=
